<?xml version="1.0" encoding="utf-8"?>
<!-- Generator: Adobe Illustrator 25.0.0, SVG Export Plug-In . SVG Version: 6.00 Build 0)  -->
<svg version="1.1" id="Layer_1" xmlns="http://www.w3.org/2000/svg" xmlns:xlink="http://www.w3.org/1999/xlink" x="0px" y="0px"
	 viewBox="0 0 2000 2000" style="enable-background:new 0 0 2000 2000;" xml:space="preserve">
<g>
	<path d="M1384.26,1284.23c7.91-7.18,9.36-16.39,9.36-26.53c-0.1-287.29-0.22-574.57,0.19-861.86c0.03-22.55-13.83-35-34.82-34.98
		c-287.34,0.33-574.68,0.33-862.02,0.01c-21.09-0.02-34.55,13.1-34.48,34.57c0.53,143.52,0.28,287.04,0.28,430.55
		c0,143.77,0,287.54,0.02,431.3c0,4.47-0.34,8.96,0.94,13.38c3.98,13.76,14.77,21.17,31.39,21.17c86.88,0.03,173.75,0.02,260.63,0
		c2.49,0,5.06,0.13,7.46-0.41c6.39-1.44,10.68-5.23,11.41-12.03c0.4-3.7,0.37-7.46,0.37-11.2c0.02-105.83,0.01-211.65,0.01-317.48
		c0-18.12,0-18.12,18.31-18.12c64.16,0,128.32,0.03,192.47-0.02c15-0.01,23.65-6.47,26.93-19.73c5.67-22.85-6.27-38.11-29.81-38.12
		c-66.65-0.01-133.31-0.12-199.96,0.18c-6.89,0.03-8.23-1.97-8.1-8.36c0.41-20.21,0.21-40.43,0.14-60.65
		c-0.14-39.3,7.69-76.83,25.87-111.78c36.15-69.5,92.75-112.48,169.31-129.23c26.38-5.77,53.14-4.22,79.81-4.47
		c14.95-0.14,25.13-10.55,25.79-26.21c0.79-19.02-7.74-31.4-23.57-31.79c-27.67-0.7-55.4-1.02-82.89,3.6
		c-42.36,7.12-81.68,22.14-117.44,45.91c-42.77,28.43-76.41,65.37-100.33,110.88c-24.51,46.62-34.85,96.38-34.62,149.05
		c0.59,138.02,0.15,276.05,0.35,414.08c0.01,6.61-1.61,8.28-8.24,8.25c-60.16-0.28-120.33-0.26-180.49-0.02
		c-6.16,0.02-7.91-1.48-7.9-7.78c0.16-266.57,0.16-533.14,0.02-799.71c0-5.63,1.1-7.52,7.22-7.52
		c266.87,0.17,533.74,0.17,800.6,0.01c6.1,0,7.27,1.9,7.27,7.55c-0.13,266.57-0.14,533.14,0.03,799.71c0,6.42-1.98,7.75-8.02,7.73
		c-61.41-0.21-122.82-0.11-184.24-0.15c-11.67-0.01-10.11,1.57-10.12-10.49c-0.05-76.38-0.03-152.75-0.01-229.13
		c0-7.33-0.38-14.47-5.5-20.44c-7.66-8.94-23.13-12.12-35.99-7.6c-9.07,3.19-16.91,12.69-16.7,26.11
		c0.53,34.19,0.18,68.39,0.18,102.58c0,57.41,0.17,114.82-0.12,172.22c-0.07,14.43,8.78,24.7,22.61,24.68
		c88.87-0.14,177.75-0.09,266.62-0.08C1372.1,1291.84,1378.64,1289.33,1384.26,1284.23z"/>
	<path d="M449,1551.45c0.39-8.98,0.43-17.94-0.96-26.87c-1.93-12.43-8.22-20.75-20.95-23.96c-13.68-3.45-27.37-3.8-40.91-0.29
		c-10.79,2.8-20.54,7.68-24.22,19.56c-2.79,8.98,2.88,15.45,12.07,14.2c4.47-0.61,6.09-4.19,7.91-7.25
		c7.41-12.44,24.91-12.74,34.58-8.91c5.81,2.3,7.31,8.09,7.33,13.69c0.02,5.12-5.17,3.87-8.01,4.59
		c-12.28,3.1-24.78,5.37-37.09,8.39c-13.5,3.31-22.07,14.17-22.15,27.23c-0.07,13.23,8.32,24.36,21.35,28.08
		c13.32,3.8,25.71,0.97,37.44-5.74c3.22-1.84,6.19-5.52,9.39-5.66c4.07-0.18,5.03,5.41,7.84,8.07c4.28,4.06,8.59,6.8,14.56,3.34
		c5.51-3.19,7.66-7.61,5.47-13.76C448.65,1574.88,448.56,1563.2,449,1551.45z M404.42,1584.26c-3.88,1.15-7.93,1.38-11.64,0.11
		c-6.62-2.26-10.86-6.75-10.69-14.3c0.15-6.65,4.62-11.54,12.56-13.49c9.66-2.37,19.35-4.6,29.01-6.88
		C425.63,1569.66,420.14,1579.58,404.42,1584.26z"/>
	<path d="M335.8,1462.16c-20.71-0.03-41.43-0.01-62.14-0.01c-15.32,0-19.25,3.93-19.3,19.5c-0.05,16.72-0.01,33.43-0.01,50.15
		c0.03,0,0.06,0,0.1,0c0,18.21-0.22,36.43,0.09,54.64c0.17,10.03,5.91,15.5,14.54,15c7.28-0.42,12.34-5.95,12.55-14.77
		c0.33-13.47,0.48-26.95,0.05-40.41c-0.19-5.97,0.99-8.21,7.55-7.9c12.45,0.6,24.95,0.2,37.43,0.17c8.4-0.02,13.28-4.01,13.17-10.65
		c-0.11-6.64-4.86-10.29-13.5-10.31c-12.73-0.02-25.46-0.3-38.18,0.13c-5.45,0.19-6.76-1.58-6.43-6.69c0.45-6.96,0.47-13.99,0-20.94
		c-0.37-5.4,0.93-7.28,6.79-7.1c15.71,0.47,31.44,0.18,47.16,0.15c8.61-0.02,13.4-3.78,13.44-10.41
		C349.15,1466.02,344.37,1462.18,335.8,1462.16z"/>
	<path d="M804.24,1554.92c8.47,0.28,16.95,0.09,25.43,0.09c7.73,0,15.46,0.07,23.19-0.02c13.66-0.15,19.19-7.03,16.99-20.47
		c-3.34-20.49-20.44-36.59-46.39-36.45c-27.2,0.15-41.38,15.35-46.71,31.77c-7.6,23.41-1.41,48.92,15.59,61.96
		c17.74,13.61,49.61,12.94,66.77-1.38c3.3-2.75,6.07-5.92,7.87-9.83c2.09-4.54,3.22-9.31-1.44-12.87
		c-4.76-3.64-9.13-1.91-13.13,1.95c-3.93,3.8-7.71,7.77-12.42,10.7c-8.51,5.3-17.32,6.66-26.39,1.81
		c-8.96-4.79-12.3-13.16-13.68-22.67C799.39,1555.9,800.53,1554.8,804.24,1554.92z M800.12,1536.03
		c1.51-11.13,10.52-19.7,21.4-19.96c12.66-0.3,21.43,6.98,23.57,19.01c0.73,4.12-0.27,5.24-4.34,5.03
		c-5.96-0.31-11.96-0.08-17.94-0.08c-6.23,0-12.46-0.12-18.69,0.05C801.07,1540.16,799.63,1539.66,800.12,1536.03z"/>
	<path d="M1346.14,1554.95c8.47,0.2,16.96,0.07,25.43,0.07c7.98,0,15.99,0.45,23.93-0.1c15.62-1.08,18.33-7.49,16.58-20.03
		c-2.86-20.51-20.08-37.04-46.76-36.82c-22.55,0.18-38.8,10.94-45.83,30.79c-8.13,22.95-2.44,48.67,13.66,61.81
		c17.68,14.42,49.48,14.63,67.36,0.47c3.77-2.98,6.92-6.46,8.88-10.88c2.04-4.62,2.89-9.33-1.91-12.75
		c-4.6-3.28-8.72-1.64-12.55,1.96c-4.16,3.91-8.08,8.09-13.03,11.13c-8.33,5.11-16.9,6.32-25.73,1.76
		c-9.34-4.82-12.73-13.4-14.02-23.21C1341.72,1555.82,1342.88,1554.87,1346.14,1554.95z M1342.38,1536.03
		c1.5-11.12,10.52-19.71,21.4-19.96c12.66-0.3,21.43,6.98,23.57,19.01c0.73,4.11-0.26,5.24-4.34,5.03
		c-5.96-0.31-11.96-0.08-17.94-0.08c-6.23,0-12.46-0.12-18.69,0.05C1343.34,1540.16,1341.89,1539.67,1342.38,1536.03z"/>
	<path d="M755.16,1498.49c-6.01-1.65-10.78,0.33-13.35,6.29c-1.67,3.88-3.24,7.81-4.66,11.79c-6.52,18.21-12.98,36.44-20.09,56.42
		c-3.73-10.71-6.74-19.4-9.79-28.07c-4.54-12.89-8.98-25.82-13.76-38.62c-2.09-5.61-6.24-9.2-12.66-8.11
		c-5.57,0.95-9.27,4.47-10.63,10.08c-0.82,3.37,0.72,6.34,1.91,9.34c9.69,24.5,18.98,49.16,29.29,73.4c4.21,9.9-0.6,16.78-5.27,23.8
		c-4.06,6.1-10.27,5.05-16.78,3.41c-5-1.26-10.05,0.67-11.69,6.48c-1.71,6.03,0.94,10.95,6.67,12.33
		c19.21,4.61,39.68,3.34,48.93-20.85c8.61-22.52,17.4-44.98,25.9-67.54c4.55-12.09,10.09-23.84,13.2-36.44
		C763.96,1505.83,760.93,1500.07,755.16,1498.49z"/>
	<path d="M1611.47,1498.15c-31.87,1.03-47.95,24.63-47.91,52.2c0.04,24.96,15.99,52.66,53.75,51.07
		c29.97-1.26,48.03-23.26,47.42-51.92C1665.56,1524.5,1649.73,1496.91,1611.47,1498.15z M1637.12,1564.79
		c-3.61,11.37-12,17.23-23.22,17.17c-10.75-0.06-18.7-6.06-22.63-17.05c-1.79-5.01-2.14-10.21-2.11-16.45
		c-0.11-6.09,0.99-12.92,4.56-19.16c4.76-8.33,12.07-12.1,21.56-11.73c9.58,0.37,16.55,5.05,20.44,13.65
		C1640.64,1542.13,1640.68,1553.56,1637.12,1564.79z"/>
	<path d="M1196.67,1498.02c-14.14-0.57-25.34,4.94-35.07,16.48c-1.04-9.85-2.32-12.44-6.71-14.9c-8.76-4.91-17.04,0.64-17.25,12.53
		c-0.43,24.67-0.2,49.36-0.18,74.04c0,1.72,0.36,3.47,0.78,5.16c1.63,6.56,5.63,10.47,12.63,10.05c6.96-0.41,10.89-4.69,11.55-11.38
		c0.56-5.68,0.21-11.45,0.33-17.19c0.26-12.19-0.85-24.44,1.24-36.57c1.99-11.53,11.5-19.19,23.13-18.67
		c9.85,0.43,14.75,6.61,15.59,19.84c0.19,2.98,0.11,5.98,0.12,8.97c0.04,13.71-0.13,27.43,0.18,41.13
		c0.19,8.58,5.29,13.9,12.43,13.93c6.98,0.03,12.49-4.85,12.5-12.94c0.03-21.17,1.55-42.4-0.81-63.5
		C1225.36,1509.12,1212.72,1498.67,1196.67,1498.02z"/>
	<path d="M547.39,1578.92c-15.84,0.13-31.67,0.05-48.77,0.05c2.41-2.86,3.92-4.72,5.5-6.51c15.48-17.57,30.95-35.15,46.48-52.68
		c3.59-4.06,5.29-8.76,3.26-13.76c-1.98-4.89-6.96-6.28-11.68-6.33c-21.44-0.21-42.88-0.24-64.32-0.01
		c-6.72,0.07-10.56,5.23-9.39,11.45c1.17,6.25,6.32,6.28,10.88,6.36c13.66,0.23,27.32,0.08,42.45,0.08
		c-2.99,3.71-4.91,6.28-7.02,8.68c-14.97,17.02-29.99,34-44.99,51c-3.83,4.33-6.54,9.09-3.55,14.88c2.72,5.25,7.67,6.43,13.2,6.35
		c7.98-0.12,15.95-0.03,23.93-0.03c15.21,0,30.41-0.03,45.62,0.02c4.94,0.02,8.84-1.8,10.74-6.44c1.43-3.49,0.54-6.92-2.13-9.66
		C554.83,1579.51,551.31,1578.88,547.39,1578.92z"/>
	<path d="M965.1,1498.59c-6.41-1.9-11.12,0.53-13.79,6.67c-1.19,2.73-2.28,5.51-3.31,8.31c-6.89,18.62-13.76,37.25-21.24,57.55
		c-1.16-2.95-1.92-4.77-2.58-6.61c-6.9-19.15-13.64-38.36-20.75-57.44c-3-8.06-8.39-10.84-14.83-8.61
		c-6.73,2.33-10.1,8.84-7.15,16.35c10.15,25.89,20.6,51.67,31.26,77.35c2.37,5.7,6.88,9.28,13.77,9.36
		c6.93,0.07,10.93-3.7,13.98-9.12c1.21-2.15,2.11-4.49,3.04-6.79c6.97-17.27,13.94-34.54,20.85-51.83
		c2.76-6.91,5.74-13.77,7.89-20.87C974.28,1506.14,971.23,1500.42,965.1,1498.59z"/>
	<path d="M1305.98,1580.84c-2.76-0.77-5.71-0.48-8.74,0.41c-9.23,2.7-13.4-0.01-13.8-9.55c-0.56-13.45-0.38-26.93-0.43-40.4
		c-0.02-4.22-1.03-9.1,0.73-12.46c2.22-2.22,6.54-1.38,10.4-1.38c4.94,0,9.2-2.64,9.2-9.55c0-6.56-4.1-8.32-11.11-8.32
		c-0.75,0-1.51-0.1-2.24,0.02c-5.61,0-7.68-0.78-7.14-6.71c0-5.56-0.26-11.26-0.26-17.19c-0.54-7.56-5.44-12.13-12.38-12.06
		c-6.96,0.07-11.51,4.56-11.99,12.41c-0.36,5.97-0.39,11.98-0.18,17.95c0.14,3.88-0.51,5.71-5.14,5.77c-5.33,0.06-9.74,2.73-9.55,9
		c0.18,6.1,4.33,8.76,9.85,8.67c4.22-0.07,4.91,1.62,4.83,5.27c-0.21,9.23-0.07,18.46-0.07,27.69l0.44,28.43
		c0.35,7.99,2.7,15.66,10.68,19.25c12.08,5.44,24.48,4.69,36.56-0.33c3.95-1.64,6.09-5.06,5.76-9.6
		C1311.15,1584.59,1309.31,1581.77,1305.98,1580.84z"/>
	<path d="M1495.17,1502.24c-12.98-6.46-24.86-7.96-37.23,11.06c-0.97-6.9-2.12-12.97-8.97-15.03c-8.45-2.54-15.28,3.51-15.45,14.08
		c-0.28,17.46-0.12,34.92-0.09,52.38c0.01,8.48-0.18,16.98,0.33,25.43c0.4,6.62,5.51,11.24,11.62,11.24
		c6.79,0,11.25-3.3,12.53-10.13c0.54-2.91,0.61-5.93,0.67-8.9c0.26-14.44-0.72-28.93,1.81-43.27c2.98-16.86,10.4-21.72,26.49-16.65
		c6.66,2.1,11.8,1.6,15.07-4.92C1504.79,1511.82,1502.26,1505.77,1495.17,1502.24z"/>
	<path d="M1748.35,1504.14c-4.79-3.62-10.34-5.53-16.41-6.08c-11.34-1.04-17.71,5.86-23.76,15.64c-1.18-7.68-2.38-13.99-9.94-15.54
		c-8.71-1.78-14.54,4.11-14.63,15.08c-0.18,20.2-0.06,40.41-0.05,60.61c0,4.99-0.13,9.99,0.17,14.96
		c0.47,7.64,5.21,12.49,11.93,12.62c6.91,0.14,11.68-4.15,12.78-11.75c0.36-2.45,0.23-4.97,0.29-7.46
		c0.25-12.21-0.05-24.47,0.83-36.63c1.61-22.33,7.92-26.73,29.6-22.21c5.2,1.08,10.06,0.19,12.62-5.34
		C1754.35,1512.54,1753.06,1507.7,1748.35,1504.14z"/>
	<path d="M599.09,1469.76c-1.61-5.79-5.55-9.09-11.88-9.12c-6.41-0.03-10.19,3.45-11.75,9.23c-0.82,3.06-0.76,6.42-0.77,9.64
		c-0.07,17.19-0.03,34.37-0.03,51.56c0,14.94-0.03,29.89,0.02,44.83c0.02,4.72-0.08,9.49,0.48,14.16
		c0.89,7.33,5.52,11.39,12.19,11.37c6.64-0.02,11.07-4.13,12.13-11.48c0.35-2.45,0.42-4.96,0.42-7.44
		c0.03-34.37,0.04-68.75-0.01-103.12C599.89,1476.17,599.94,1472.81,599.09,1469.76z"/>
	<path d="M652.03,1510.54c-0.23-7.73-5.08-12.25-11.92-12.44c-7.41-0.2-12.5,4.06-12.61,12.37c-0.36,26.12-0.17,52.24-0.13,78.36
		c0.01,4.19,1.69,7.83,5.05,10.39c7.77,5.91,18.78,0.89,19.37-9.58c0.76-13.39,0.19-26.85,0.19-40.29c0.05,0,0.1,0,0.14,0
		C652.14,1536.41,652.41,1523.46,652.03,1510.54z"/>
	<path d="M1112.22,1517.68c-0.01-2.49,0-4.99-0.26-7.45c-0.79-7.59-5.4-12.08-12.28-12.13c-7.08-0.06-12.07,4.1-12.24,11.93
		c-0.48,21.89-0.4,43.79-0.43,65.68c-0.01,5.21-0.13,10.51,0.7,15.62c1.03,6.25,5.07,10.11,11.73,10.06
		c6.5-0.05,10.67-3.55,12.09-9.85c0.65-2.88,0.66-5.93,0.68-8.9c0.07-10.95,0.03-21.9,0.03-32.85
		C1112.23,1539.08,1112.24,1528.38,1112.22,1517.68z"/>
	<path d="M1541.93,1549.58c0-12.94,0.28-25.89-0.1-38.81c-0.24-8.12-5.25-12.71-12.45-12.67c-7.04,0.03-11.26,4.23-12.19,12.13
		c-0.09,0.74-0.25,1.48-0.25,2.22c-0.01,24.89-0.03,49.77,0.03,74.66c0,1.97,0.23,4.06,0.92,5.88c2.01,5.26,5.62,8.58,11.66,8.45
		c5.94-0.13,9.86-3.27,11.57-8.67c0.95-3.01,0.95-6.39,0.98-9.6c0.11-11.2,0.04-22.4,0.04-33.6
		C1542.07,1549.58,1542,1549.58,1541.93,1549.58z"/>
	<path d="M1102.41,930.22c14.8,0.12,27.15-12.17,27.18-27.04c0.03-14.54-12.19-27.46-26.1-27.58
		c-15.27-0.13-27.87,12.16-27.94,27.26C1075.47,917.81,1087.53,930.1,1102.41,930.22z"/>
	<path d="M1069.14,1611.82c-28.88,0.19-57.76,0.17-86.64,0.02c-4.03-0.02-5.64,0.83-5.61,5.26c0.02,4.28,1.28,5.47,5.49,5.4
		c14.44-0.24,28.88-0.09,43.32-0.09c14.44,0,28.88-0.14,43.32,0.09c4.09,0.06,5.54-0.92,5.51-5.27
		C1074.49,1613.05,1073.42,1611.79,1069.14,1611.82z"/>
	<path d="M639.91,1460.65c-7.12,0-12.62,5.43-12.72,12.56c-0.11,7.71,5.21,13.03,12.87,12.9c7.26-0.12,12.22-5.33,12.23-12.84
		C652.29,1465.93,647.12,1460.66,639.91,1460.65z"/>
	<path d="M1099.88,1486.12c7.27-0.11,12.25-5.3,12.28-12.8c0.02-7.36-5.12-12.64-12.34-12.67c-7.12-0.02-12.65,5.4-12.76,12.52
		C1086.93,1480.89,1092.22,1486.23,1099.88,1486.12z"/>
	<path d="M1530.04,1486.12c7.21-0.21,12.08-5.5,12-13.04c-0.07-7.31-5.33-12.52-12.55-12.43c-7.09,0.09-12.54,5.63-12.55,12.76
		C1516.93,1481.08,1522.35,1486.34,1530.04,1486.12z"/>
</g>
</svg>
